<svg width="19" height="15" viewBox="0 0 19 15" fill="none" xmlns="http://www.w3.org/2000/svg">
<g clip-path="url(#clip0_244_2542)">
<path d="M7.52002 1.92251C8.53502 1.92251 9.35752 2.74501 9.35752 3.76001C9.35752 4.77501 8.53502 5.59751 7.52002 5.59751C6.50502 5.59751 5.68252 4.77501 5.68252 3.76001C5.68252 2.74501 6.50502 1.92251 7.52002 1.92251ZM7.52002 9.79751C10.1188 9.79751 12.8575 11.075 12.8575 11.635L12.8575 12.5975L2.18252 12.5975L2.18252 11.635C2.18252 11.075 4.92127 9.79751 7.52002 9.79751ZM7.52002 0.260009C5.58627 0.260009 4.02002 1.82626 4.02002 3.76001C4.02002 5.69376 5.58627 7.26001 7.52002 7.26001C9.45377 7.26001 11.02 5.69376 11.02 3.76001C11.02 1.82626 9.45377 0.260008 7.52002 0.260009ZM7.52002 8.13501C5.18377 8.13501 0.520021 9.30751 0.520022 11.635L0.520022 14.26L14.52 14.26L14.52 11.635C14.52 9.30751 9.85627 8.13501 7.52002 8.13501Z" fill="#3617CE" fill-opacity="0.79"/>
</g>
<path d="M18.0585 9.22065C18.0756 9.08003 18.0842 8.93472 18.0842 8.78003C18.0842 8.63003 18.0756 8.48003 18.0542 8.3394L18.9238 7.59878C19.0009 7.53315 19.0223 7.40659 18.9752 7.31284L18.1527 5.75659C18.1013 5.65347 17.9942 5.62065 17.9 5.65347L16.8762 6.10347C16.662 5.92534 16.435 5.77534 16.1823 5.66284L16.0281 4.47222C16.0109 4.35972 15.9253 4.28003 15.8224 4.28003H14.1776C14.0747 4.28003 13.9934 4.35972 13.9762 4.47222L13.822 5.66284C13.5693 5.77534 13.338 5.93003 13.1281 6.10347L12.1043 5.65347C12.0101 5.61597 11.903 5.65347 11.8516 5.75659L11.0334 7.31284C10.982 7.41128 10.9991 7.53315 11.0848 7.59878L11.9544 8.3394C11.933 8.48003 11.9158 8.63472 11.9158 8.78003C11.9158 8.92534 11.9244 9.08003 11.9458 9.22065L11.0762 9.96128C10.9991 10.0269 10.9777 10.1535 11.0248 10.2472L11.8473 11.8035C11.8987 11.9066 12.0058 11.9394 12.1 11.9066L13.1238 11.4566C13.338 11.6347 13.565 11.7847 13.8177 11.8972L13.9719 13.0878C13.9934 13.2003 14.0747 13.28 14.1776 13.28H15.8224C15.9253 13.28 16.0109 13.2003 16.0238 13.0878L16.178 11.8972C16.4307 11.7847 16.662 11.6347 16.8719 11.4566L17.8957 11.9066C17.9899 11.9441 18.097 11.9066 18.1484 11.8035L18.9709 10.2472C19.0223 10.1441 19.0009 10.0269 18.9195 9.96128L18.0585 9.22065ZM15 10.4675C14.1519 10.4675 13.4579 9.70815 13.4579 8.78003C13.4579 7.8519 14.1519 7.09253 15 7.09253C15.8481 7.09253 16.5421 7.8519 16.5421 8.78003C16.5421 9.70815 15.8481 10.4675 15 10.4675Z" fill="#3617CE" fill-opacity="0.79"/>
<defs>
<clipPath id="clip0_244_2542">
<rect width="14.52" height="14.52" fill="white"/>
</clipPath>
</defs>
</svg>
