<svg width="56" height="38" viewBox="0 0 56 38" fill="none" xmlns="http://www.w3.org/2000/svg">
<g clip-path="url(#clip0_2493_5231)">
<path d="M18.4998 34.4166C20.1957 34.4166 21.5832 33.0291 21.5832 31.3333H15.4165C15.4165 33.0291 16.804 34.4166 18.4998 34.4166ZM27.7498 25.1666V17.4583C27.7498 12.7254 25.2369 8.76329 20.8123 7.71496V6.66663C20.8123 5.38704 19.7794 4.35413 18.4998 4.35413C17.2203 4.35413 16.1873 5.38704 16.1873 6.66663V7.71496C11.7782 8.76329 9.24984 12.71 9.24984 17.4583V25.1666L6.1665 28.25V29.7916H30.8332V28.25L27.7498 25.1666ZM24.6665 26.7083H12.3332V17.4583C12.3332 13.635 14.6611 10.5208 18.4998 10.5208C22.3386 10.5208 24.6665 13.635 24.6665 17.4583V26.7083Z" fill="#6C7383"/>
</g>
<rect x="21" y="4.5" width="35" height="20" rx="10" fill="#3617CE"/>
<path d="M29.7328 17.5918H29.8441C30.4691 17.5918 30.977 17.5039 31.3676 17.3281C31.7582 17.1523 32.059 16.916 32.2699 16.6191C32.4809 16.3223 32.6254 15.9883 32.7035 15.6172C32.7816 15.2422 32.8207 14.8574 32.8207 14.4629V13.1562C32.8207 12.7695 32.7758 12.4258 32.6859 12.125C32.6 11.8242 32.4789 11.5723 32.3227 11.3691C32.1703 11.166 31.9965 11.0117 31.8012 10.9062C31.6059 10.8008 31.3988 10.748 31.1801 10.748C30.9301 10.748 30.7055 10.7988 30.5063 10.9004C30.3109 10.998 30.1449 11.1367 30.0082 11.3164C29.8754 11.4961 29.7738 11.707 29.7035 11.9492C29.6332 12.1914 29.598 12.4551 29.598 12.7402C29.598 12.9941 29.6293 13.2402 29.6918 13.4785C29.7543 13.7168 29.85 13.9316 29.9789 14.123C30.1078 14.3145 30.268 14.4668 30.4594 14.5801C30.6547 14.6895 30.8832 14.7441 31.1449 14.7441C31.3871 14.7441 31.6137 14.6973 31.8246 14.6035C32.0395 14.5059 32.2289 14.375 32.393 14.2109C32.5609 14.043 32.6938 13.8535 32.7914 13.6426C32.893 13.4316 32.9516 13.2109 32.9672 12.9805H33.4828C33.4828 13.3047 33.4184 13.625 33.2895 13.9414C33.1645 14.2539 32.9887 14.5391 32.7621 14.7969C32.5355 15.0547 32.2699 15.2617 31.9652 15.418C31.6605 15.5703 31.3285 15.6465 30.9691 15.6465C30.5473 15.6465 30.182 15.5645 29.8734 15.4004C29.5648 15.2363 29.3109 15.0176 29.1117 14.7441C28.9164 14.4707 28.7699 14.166 28.6723 13.8301C28.5785 13.4902 28.5316 13.1465 28.5316 12.7988C28.5316 12.3926 28.5883 12.0117 28.7016 11.6562C28.8148 11.3008 28.9828 10.9883 29.2055 10.7188C29.4281 10.4453 29.7035 10.2324 30.0316 10.0801C30.3637 9.92773 30.7465 9.85156 31.1801 9.85156C31.6684 9.85156 32.0844 9.94922 32.4281 10.1445C32.7719 10.3398 33.0512 10.6016 33.266 10.9297C33.4848 11.2578 33.6449 11.627 33.7465 12.0371C33.848 12.4473 33.8988 12.8691 33.8988 13.3027V13.6953C33.8988 14.1367 33.8695 14.5859 33.8109 15.043C33.7563 15.4961 33.6488 15.9297 33.4887 16.3438C33.3324 16.7578 33.1039 17.1289 32.8031 17.457C32.5023 17.7812 32.1098 18.0391 31.6254 18.2305C31.1449 18.418 30.5512 18.5117 29.8441 18.5117H29.7328V17.5918ZM36.8828 17.5918H36.9941C37.6191 17.5918 38.127 17.5039 38.5176 17.3281C38.9082 17.1523 39.209 16.916 39.4199 16.6191C39.6309 16.3223 39.7754 15.9883 39.8535 15.6172C39.9316 15.2422 39.9707 14.8574 39.9707 14.4629V13.1562C39.9707 12.7695 39.9258 12.4258 39.8359 12.125C39.75 11.8242 39.6289 11.5723 39.4727 11.3691C39.3203 11.166 39.1465 11.0117 38.9512 10.9062C38.7559 10.8008 38.5488 10.748 38.3301 10.748C38.0801 10.748 37.8555 10.7988 37.6563 10.9004C37.4609 10.998 37.2949 11.1367 37.1582 11.3164C37.0254 11.4961 36.9238 11.707 36.8535 11.9492C36.7832 12.1914 36.748 12.4551 36.748 12.7402C36.748 12.9941 36.7793 13.2402 36.8418 13.4785C36.9043 13.7168 37 13.9316 37.1289 14.123C37.2578 14.3145 37.418 14.4668 37.6094 14.5801C37.8047 14.6895 38.0332 14.7441 38.2949 14.7441C38.5371 14.7441 38.7637 14.6973 38.9746 14.6035C39.1895 14.5059 39.3789 14.375 39.543 14.2109C39.7109 14.043 39.8438 13.8535 39.9414 13.6426C40.043 13.4316 40.1016 13.2109 40.1172 12.9805H40.6328C40.6328 13.3047 40.5684 13.625 40.4395 13.9414C40.3145 14.2539 40.1387 14.5391 39.9121 14.7969C39.6855 15.0547 39.4199 15.2617 39.1152 15.418C38.8105 15.5703 38.4785 15.6465 38.1191 15.6465C37.6973 15.6465 37.332 15.5645 37.0234 15.4004C36.7148 15.2363 36.4609 15.0176 36.2617 14.7441C36.0664 14.4707 35.9199 14.166 35.8223 13.8301C35.7285 13.4902 35.6816 13.1465 35.6816 12.7988C35.6816 12.3926 35.7383 12.0117 35.8516 11.6562C35.9648 11.3008 36.1328 10.9883 36.3555 10.7188C36.5781 10.4453 36.8535 10.2324 37.1816 10.0801C37.5137 9.92773 37.8965 9.85156 38.3301 9.85156C38.8184 9.85156 39.2344 9.94922 39.5781 10.1445C39.9219 10.3398 40.2012 10.6016 40.416 10.9297C40.6348 11.2578 40.7949 11.627 40.8965 12.0371C40.998 12.4473 41.0488 12.8691 41.0488 13.3027V13.6953C41.0488 14.1367 41.0195 14.5859 40.9609 15.043C40.9063 15.4961 40.7988 15.9297 40.6387 16.3438C40.4824 16.7578 40.2539 17.1289 39.9531 17.457C39.6523 17.7812 39.2598 18.0391 38.7754 18.2305C38.2949 18.418 37.7012 18.5117 36.9941 18.5117H36.8828V17.5918ZM48.5504 13.9238V14.9434H42.7027V13.9238H48.5504ZM46.1715 11.4336V17.6445H45.0875V11.4336H46.1715Z" fill="white"/>
<defs>
<clipPath id="clip0_2493_5231">
<rect width="37" height="37" fill="white" transform="translate(0 0.5)"/>
</clipPath>
</defs>
</svg>
