<svg width="14.52" height="14.52" viewBox="0 0 15 15" fill="none" xmlns="http://www.w3.org/2000/svg">
<path d="M9.89691 9.53674e-07H12.5361C13.0825 9.53674e-07 13.549 0.1933 13.9356 0.579898C14.3222 0.966496 14.5155 1.43299 14.5155 1.97938V4.61856C14.5155 5.16495 14.3222 5.63144 13.9356 6.01804C13.549 6.40464 13.0825 6.59794 12.5361 6.59794H9.89691C9.35052 6.59794 8.88402 6.40464 8.49742 6.01804C8.11082 5.63144 7.91753 5.16495 7.91753 4.61856V1.97938C7.91753 1.43299 8.11082 0.966496 8.49742 0.579898C8.88402 0.1933 9.35052 9.53674e-07 9.89691 9.53674e-07ZM1.97938 7.91753H4.61856C5.16495 7.91753 5.63144 8.11083 6.01804 8.49742C6.40464 8.88402 6.59794 9.35052 6.59794 9.89691V12.5361C6.59794 13.0825 6.40464 13.549 6.01804 13.9356C5.63144 14.3222 5.16495 14.5155 4.61856 14.5155H1.97938C1.43299 14.5155 0.966495 14.3222 0.579897 13.9356C0.193299 13.549 0 13.0825 0 12.5361V9.89691C0 9.35052 0.193299 8.88402 0.579897 8.49742C0.966495 8.11083 1.43299 7.91753 1.97938 7.91753ZM4.61856 9.23711H1.97938C1.79725 9.23711 1.64175 9.30155 1.51289 9.43041C1.38402 9.55928 1.31959 9.71478 1.31959 9.89691V12.5361C1.31959 12.7182 1.38402 12.8737 1.51289 13.0026C1.64175 13.1314 1.79725 13.1959 1.97938 13.1959H4.61856C4.80069 13.1959 4.95619 13.1314 5.08505 13.0026C5.21392 12.8737 5.27835 12.7182 5.27835 12.5361V9.89691C5.27835 9.71478 5.21392 9.55928 5.08505 9.43041C4.95619 9.30155 4.80069 9.23711 4.61856 9.23711ZM1.97938 9.53674e-07H4.61856C5.16495 9.53674e-07 5.63144 0.1933 6.01804 0.579898C6.40464 0.966496 6.59794 1.43299 6.59794 1.97938V4.61856C6.59794 5.16495 6.40464 5.63144 6.01804 6.01804C5.63144 6.40464 5.16495 6.59794 4.61856 6.59794H1.97938C1.43299 6.59794 0.966495 6.40464 0.579897 6.01804C0.193299 5.63144 0 5.16495 0 4.61856V1.97938C0 1.43299 0.193299 0.966496 0.579897 0.579898C0.966495 0.1933 1.43299 9.53674e-07 1.97938 9.53674e-07ZM4.61856 1.31959H1.97938C1.79725 1.31959 1.64175 1.38402 1.51289 1.51289C1.38402 1.64175 1.31959 1.79725 1.31959 1.97938V4.61856C1.31959 4.80069 1.38402 4.95619 1.51289 5.08505C1.64175 5.21392 1.79725 5.27835 1.97938 5.27835H4.61856C4.80069 5.27835 4.95619 5.21392 5.08505 5.08505C5.21392 4.95619 5.27835 4.80069 5.27835 4.61856V1.97938C5.27835 1.79725 5.21392 1.64175 5.08505 1.51289C4.95619 1.38402 4.80069 1.31959 4.61856 1.31959ZM9.89691 7.91753H12.5361C13.0825 7.91753 13.549 8.11083 13.9356 8.49742C14.3222 8.88402 14.5155 9.35052 14.5155 9.89691V12.5361C14.5155 13.0825 14.3222 13.549 13.9356 13.9356C13.549 14.3222 13.0825 14.5155 12.5361 14.5155H9.89691C9.35052 14.5155 8.88402 14.3222 8.49742 13.9356C8.11082 13.549 7.91753 13.0825 7.91753 12.5361V9.89691C7.91753 9.35052 8.11082 8.88402 8.49742 8.49742C8.88402 8.11083 9.35052 7.91753 9.89691 7.91753ZM12.5361 9.23711H9.89691C9.71478 9.23711 9.55928 9.30155 9.43041 9.43041C9.30155 9.55928 9.23711 9.71478 9.23711 9.89691V12.5361C9.23711 12.7182 9.30155 12.8737 9.43041 13.0026C9.55928 13.1314 9.71478 13.1959 9.89691 13.1959H12.5361C12.7182 13.1959 12.8737 13.1314 13.0026 13.0026C13.1314 12.8737 13.1959 12.7182 13.1959 12.5361V9.89691C13.1959 9.71478 13.1314 9.55928 13.0026 9.43041C12.8737 9.30155 12.7182 9.23711 12.5361 9.23711ZM12.5361 1.31959H9.89691C9.71478 1.31959 9.55928 1.38402 9.43041 1.51289C9.30155 1.64175 9.23711 1.79725 9.23711 1.97938V4.61856C9.23711 4.80069 9.30155 4.95619 9.43041 5.08505C9.55928 5.21392 9.71478 5.27835 9.89691 5.27835H12.5361C12.7182 5.27835 12.8737 5.21392 13.0026 5.08505C13.1314 4.95619 13.1959 4.80069 13.1959 4.61856V1.97938C13.1959 1.79725 13.1314 1.64175 13.0026 1.51289C12.8737 1.38402 12.7182 1.31959 12.5361 1.31959Z" fill="#3617CE" fill-opacity="0.79"/>
</svg>
