<svg width="20" height="21" viewBox="0 0 20 21" fill="none" xmlns="http://www.w3.org/2000/svg">
<path d="M10 0.745361C4.48 0.745361 0 5.22536 0 10.7454C0 16.2654 4.48 20.7454 10 20.7454C15.52 20.7454 20 16.2654 20 10.7454C20 5.22536 15.52 0.745361 10 0.745361ZM10 3.74536C11.66 3.74536 13 5.08536 13 6.74536C13 8.40536 11.66 9.74536 10 9.74536C8.34 9.74536 7 8.40536 7 6.74536C7 5.08536 8.34 3.74536 10 3.74536ZM10 17.9454C7.5 17.9454 5.29 16.6654 4 14.7254C4.03 12.7354 8 11.6454 10 11.6454C11.99 11.6454 15.97 12.7354 16 14.7254C14.71 16.6654 12.5 17.9454 10 17.9454Z" fill="#3617CE"/>
</svg>
