<svg width="14.52" height="14.52" viewBox="0 0 15 15" fill="none" xmlns="http://www.w3.org/2000/svg">
<g id="filled/action/perm-identity" clip-path="url(#clip0_244_2500)">
<path id="Vector" d="M7.52002 1.92251C8.53502 1.92251 9.35752 2.74501 9.35752 3.76001C9.35752 4.77501 8.53502 5.59751 7.52002 5.59751C6.50502 5.59751 5.68252 4.77501 5.68252 3.76001C5.68252 2.74501 6.50502 1.92251 7.52002 1.92251ZM7.52002 9.79751C10.1188 9.79751 12.8575 11.075 12.8575 11.635L12.8575 12.5975L2.18252 12.5975L2.18252 11.635C2.18252 11.075 4.92127 9.79751 7.52002 9.79751ZM7.52002 0.260009C5.58627 0.260009 4.02002 1.82626 4.02002 3.76001C4.02002 5.69376 5.58627 7.26001 7.52002 7.26001C9.45377 7.26001 11.02 5.69376 11.02 3.76001C11.02 1.82626 9.45377 0.260008 7.52002 0.260009ZM7.52002 8.13501C5.18377 8.13501 0.520021 9.30751 0.520022 11.635L0.520022 14.26L14.52 14.26L14.52 11.635C14.52 9.30751 9.85627 8.13501 7.52002 8.13501Z" fill="#3617CE" fill-opacity="0.79"/>
</g>
<defs>
<clipPath id="clip0_244_2500">
<rect width="14.52" height="14.52" fill="white"/>
</clipPath>
</defs>
</svg>
