<svg width="21" height="18" viewBox="0 0 21 18" fill="none" xmlns="http://www.w3.org/2000/svg">
<path d="M14.484 11H13.5929L13.277 10.73C14.3825 9.59 15.048 8.11 15.048 6.5C15.048 2.91 11.7655 0 7.716 0C3.66648 0 0.384003 2.91 0.384003 6.5C0.384003 10.09 3.66648 13 7.716 13C9.53208 13 11.2015 12.41 12.4874 11.43L12.792 11.71V12.5L18.432 17.49L20.1127 16L14.484 11ZM7.716 11C4.90728 11 2.64 8.99 2.64 6.5C2.64 4.01 4.90728 2 7.716 2C10.5247 2 12.792 4.01 12.792 6.5C12.792 8.99 10.5247 11 7.716 11Z" fill="#6C7383"/>
</svg>
